<svg width="512" height="512" viewBox="0 0 512 512" xmlns="http://www.w3.org/2000/svg">
  <defs>
    <radialGradient id="bg" cx="38%" cy="28%" r="72%">
      <stop offset="0%" stop-color="#f6fdff"/>
      <stop offset="28%" stop-color="#d7fbff"/>
      <stop offset="66%" stop-color="#89e4ff"/>
      <stop offset="100%" stop-color="#35abdc"/>
    </radialGradient>
    <linearGradient id="ring" x1="0%" y1="0%" x2="100%" y2="100%">
      <stop offset="0%" stop-color="#eefcff"/>
      <stop offset="40%" stop-color="#9ae7ff"/>
      <stop offset="100%" stop-color="#228ac7"/>
    </linearGradient>
    <linearGradient id="stack" x1="0%" y1="0%" x2="100%" y2="100%">
      <stop offset="0%" stop-color="#f5fffe"/>
      <stop offset="38%" stop-color="#9df6da"/>
      <stop offset="100%" stop-color="#28b985"/>
    </linearGradient>
    <linearGradient id="coin" x1="0%" y1="0%" x2="100%" y2="100%">
      <stop offset="0%" stop-color="#fff6c4"/>
      <stop offset="45%" stop-color="#ffd86a"/>
      <stop offset="100%" stop-color="#dfa114"/>
    </linearGradient>
    <filter id="shadow" x="-20%" y="-20%" width="140%" height="140%">
      <feDropShadow dx="0" dy="14" stdDeviation="12" flood-color="#0b4f75" flood-opacity="0.28"/>
    </filter>
  </defs>

  <g filter="url(#shadow)">
    <circle cx="256" cy="256" r="172" fill="url(#bg)"/>
    <ellipse cx="256" cy="356" rx="120" ry="42" fill="#2c9dd0" opacity="0.18"/>

    <ellipse cx="256" cy="256" rx="152" ry="172" fill="none" stroke="url(#ring)" stroke-width="18"/>
    <ellipse cx="256" cy="256" rx="88" ry="172" fill="none" stroke="url(#ring)" stroke-width="18"/>
    <ellipse cx="256" cy="256" rx="132" ry="172" fill="none" stroke="url(#ring)" stroke-width="14" opacity="0.75"/>
    <path d="M84 256H428" fill="none" stroke="url(#ring)" stroke-width="18" stroke-linecap="round"/>
    <path d="M102 188H410" fill="none" stroke="url(#ring)" stroke-width="15" stroke-linecap="round" opacity="0.82"/>
    <path d="M102 324H410" fill="none" stroke="url(#ring)" stroke-width="15" stroke-linecap="round" opacity="0.82"/>

    <path d="M247 118C175 120 124 164 107 228" fill="none" stroke="#ffffff" stroke-width="10" stroke-linecap="round" opacity="0.45"/>
    <path d="M148 132C184 106 226 92 274 88" fill="none" stroke="#ffffff" stroke-width="10" stroke-linecap="round" opacity="0.35"/>

    <g transform="translate(256 278)">
      <ellipse cx="0" cy="40" rx="88" ry="26" fill="url(#stack)" stroke="#ecfffb" stroke-width="8"/>
      <path d="M-88 12V40C-88 54 -49 66 0 66C49 66 88 54 88 40V12" fill="url(#stack)" opacity="0.95"/>
      <ellipse cx="0" cy="12" rx="88" ry="26" fill="url(#stack)" stroke="#ecfffb" stroke-width="8"/>

      <ellipse cx="0" cy="-22" rx="72" ry="22" fill="url(#stack)" stroke="#ecfffb" stroke-width="8"/>
      <path d="M-72 -2V18C-72 30 -40 40 0 40C40 40 72 30 72 18V-2" fill="url(#stack)" opacity="0.92"/>

      <circle cx="98" cy="-10" r="34" fill="url(#coin)" stroke="#fff4c0" stroke-width="8"/>
      <path d="M98 -27V6" fill="none" stroke="#fff8dc" stroke-width="8" stroke-linecap="round"/>
      <path d="M113 -19C109 -24 103 -27 96 -27C84 -27 77 -20 77 -12C77 -3 84 2 98 6C112 10 119 15 119 24C119 33 111 40 98 40C90 40 82 37 77 31" fill="none" stroke="#fff8dc" stroke-width="8" stroke-linecap="round"/>
    </g>
  </g>
</svg>
