<svg width="512" height="512" viewBox="0 0 512 512" xmlns="http://www.w3.org/2000/svg">
  <defs>
    <radialGradient id="bg" cx="38%" cy="28%" r="72%">
      <stop offset="0%" stop-color="#f6fdff"/>
      <stop offset="30%" stop-color="#d0f6ff"/>
      <stop offset="68%" stop-color="#7fdcff"/>
      <stop offset="100%" stop-color="#30a7dd"/>
    </radialGradient>
    <linearGradient id="ring" x1="0%" y1="0%" x2="100%" y2="100%">
      <stop offset="0%" stop-color="#eefcff"/>
      <stop offset="40%" stop-color="#94e3ff"/>
      <stop offset="100%" stop-color="#2089c8"/>
    </linearGradient>
    <linearGradient id="gold" x1="0%" y1="0%" x2="100%" y2="100%">
      <stop offset="0%" stop-color="#fff8cf"/>
      <stop offset="45%" stop-color="#ffd95b"/>
      <stop offset="100%" stop-color="#e4a10a"/>
    </linearGradient>
    <filter id="shadow" x="-20%" y="-20%" width="140%" height="140%">
      <feDropShadow dx="0" dy="14" stdDeviation="12" flood-color="#0b4f75" flood-opacity="0.28"/>
    </filter>
  </defs>

  <g filter="url(#shadow)">
    <circle cx="256" cy="256" r="172" fill="url(#bg)"/>
    <ellipse cx="256" cy="356" rx="120" ry="42" fill="#2c9dd0" opacity="0.18"/>

    <ellipse cx="256" cy="256" rx="152" ry="172" fill="none" stroke="url(#ring)" stroke-width="18"/>
    <ellipse cx="256" cy="256" rx="88" ry="172" fill="none" stroke="url(#ring)" stroke-width="18"/>
    <ellipse cx="256" cy="256" rx="132" ry="172" fill="none" stroke="url(#ring)" stroke-width="14" opacity="0.75"/>
    <path d="M84 256H428" fill="none" stroke="url(#ring)" stroke-width="18" stroke-linecap="round"/>
    <path d="M102 188H410" fill="none" stroke="url(#ring)" stroke-width="15" stroke-linecap="round" opacity="0.82"/>
    <path d="M102 324H410" fill="none" stroke="url(#ring)" stroke-width="15" stroke-linecap="round" opacity="0.82"/>

    <path d="M251 118C179 120 126 163 107 228" fill="none" stroke="#ffffff" stroke-width="10" stroke-linecap="round" opacity="0.45"/>
    <path d="M147 132C183 106 225 92 274 88" fill="none" stroke="#ffffff" stroke-width="10" stroke-linecap="round" opacity="0.35"/>

    <g transform="translate(256 258)">
      <path d="M-8 -58L20 -24L70 -12C82 -9 87 7 77 15L39 42L48 92C50 104 37 112 27 104L0 82L-27 104C-37 112 -50 104 -48 92L-39 42L-77 15C-87 7 -82 -9 -70 -12L-20 -24L8 -58C14 -67 26 -67 32 -58L43 -42L20 -22L0 -45L-20 -22L-43 -42L-32 -58C-26 -67 -14 -67 -8 -58Z" fill="url(#gold)" stroke="#fff5bf" stroke-width="8" stroke-linejoin="round"/>
      <circle cx="0" cy="-2" r="16" fill="#fff7d8" opacity="0.9"/>
    </g>
  </g>
</svg>
